<?xml version="1.0" encoding="UTF-8"?><svg id="a" xmlns="http://www.w3.org/2000/svg" viewBox="0 0 5000 5000"><defs><style>.b{fill:#fff;}.c{fill:#707070;}</style></defs><rect class="b" width="5000" height="5000"/><g><path class="c" d="M3513.83,3210.41v160.31c0,14.86-12.05,26.91-26.91,26.91H1513.08c-14.86,0-26.91-12.05-26.91-26.91v-160.31c0-79.99-64.84-144.83-144.83-144.83h0c-79.99,0-144.83,64.84-144.83,144.83v269.17c0,114.72,93,207.72,207.72,207.72H3595.78c114.72,0,207.72-93,207.72-207.72v-269.17c0-79.99-64.84-144.83-144.83-144.83h0c-79.99,0-144.83,64.84-144.83,144.83Z"/><path class="c" d="M3186.91,2360.25h0c-56.56-56.56-148.26-56.56-204.82,0l-337.26,337.26V1457.53c0-79.99-64.84-144.83-144.83-144.83s-144.83,64.84-144.83,144.83v1239.97l-337.26-337.26c-56.56-56.56-148.26-56.56-204.82,0h0c-56.56,56.56-56.56,148.27,0,204.83l584.5,584.5c3.37,3.37,6.92,6.57,10.61,9.6,1.67,1.37,3.43,2.56,5.15,3.85,2.06,1.55,4.08,3.14,6.23,4.58,2.06,1.38,4.19,2.57,6.3,3.83,1.95,1.16,3.85,2.39,5.85,3.46,2.15,1.15,4.36,2.12,6.55,3.15,2.09,.99,4.15,2.03,6.3,2.92,2.13,.88,4.31,1.59,6.47,2.37,2.3,.82,4.56,1.7,6.91,2.41,2.17,.66,4.37,1.13,6.55,1.69,2.39,.6,4.75,1.27,7.19,1.76,2.52,.5,5.06,.8,7.6,1.16,2.14,.31,4.24,.71,6.41,.93,4.7,.46,9.41,.71,14.13,.71,.05,0,.1,0,.16,0s.1,0,.16,0c4.72,0,9.43-.25,14.13-.71,2.17-.21,4.27-.62,6.41-.93,2.54-.36,5.08-.66,7.6-1.16,2.44-.48,4.8-1.15,7.19-1.76,2.19-.55,4.39-1.03,6.55-1.69,2.35-.71,4.61-1.59,6.91-2.41,2.16-.78,4.34-1.49,6.47-2.37,2.15-.89,4.2-1.94,6.3-2.92,2.19-1.03,4.4-2.01,6.55-3.15,2-1.07,3.91-2.3,5.85-3.46,2.11-1.26,4.24-2.45,6.3-3.83,2.15-1.44,4.17-3.03,6.23-4.58,1.72-1.29,3.48-2.48,5.15-3.85,3.69-3.03,7.24-6.22,10.61-9.6l584.5-584.5c56.56-56.56,56.56-148.26,0-204.82Z"/></g></svg>